<?xml version="1.0" encoding="UTF-8" standalone="no"?>
<svg
   viewBox="0 0 16 16"
   version="1.1"
   id="svg4"
   width="16"
   height="16"
   fill="#4e4e4e"
   xmlns="http://www.w3.org/2000/svg"
   xmlns:svg="http://www.w3.org/2000/svg">
  <defs
     id="defs8" />
  <!--!Font Awesome Free 6.5.1 by @fontawesome - https://fontawesome.com License - https://fontawesome.com/license/free Copyright 2024 Fonticons, Inc.-->
  <path
     d="M 8,16 A 8,8 0 1 0 8,0 8,8 0 1 0 8,16 Z M 5.30625,5.165625 C 5.553125,4.46875 6.215625,4 6.95625,4 H 8.778125 C 9.86875,4 10.75,4.884375 10.75,5.971875 c 0,0.70625 -0.378125,1.359375 -0.990625,1.7125 L 8.75,8.2625 C 8.74375,8.66875 8.409375,9 8,9 7.584375,9 7.25,8.665625 7.25,8.25 V 7.828125 c 0,-0.26875 0.14375,-0.515625 0.378125,-0.65 L 9.0125,6.384375 C 9.159375,6.3 9.25,6.14375 9.25,5.975 9.25,5.7125 9.0375,5.503125 8.778125,5.503125 H 6.95625 c -0.10625,0 -0.2,0.065625 -0.234375,0.165625 l -0.0125,0.0375 C 6.571875,6.096875 6.140625,6.3 5.753125,6.1625 5.365625,6.025 5.159375,5.59375 5.296875,5.20625 l 0.0125,-0.0375 z M 7,11 a 1,1 0 1 1 2,0 1,1 0 1 1 -2,0 z"
     id="path2"
     style="stroke-width:0.03125" />
</svg>
