<?xml version="1.0" encoding="UTF-8" standalone="no"?>
<svg
   viewBox="0 0 16 16"
   version="1.1"
   id="svg4"
   width="16"
   height="16"
   fill="#d80027"
   xmlns="http://www.w3.org/2000/svg"
   xmlns:svg="http://www.w3.org/2000/svg">
  <defs
     id="defs8" />
  <!--!Font Awesome Free 6.5.1 by @fontawesome - https://fontawesome.com License - https://fontawesome.com/license/free Copyright 2024 Fonticons, Inc.-->
  <path
     d="M 8,16 A 8,8 0 1 0 8,0 8,8 0 1 0 8,16 Z M 5.46875,5.46875 C 5.7625,5.175 6.2375,5.175 6.528125,5.46875 l 1.46875,1.46875 1.46875,-1.46875 c 0.29375,-0.29375 0.76875,-0.29375 1.059375,0 0.290625,0.29375 0.29375,0.76875 0,1.059375 l -1.46875,1.46875 1.46875,1.46875 c 0.29375,0.29375 0.29375,0.76875 0,1.059375 -0.29375,0.290625 -0.76875,0.29375 -1.059375,0 L 7.996875,9.05625 6.528125,10.525 c -0.29375,0.29375 -0.76875,0.29375 -1.059375,0 -0.290625,-0.29375 -0.29375,-0.76875 0,-1.059375 L 6.9375,7.996875 5.46875,6.528125 C 5.175,6.234375 5.175,5.759375 5.46875,5.46875 Z"
     id="path2"
     style="stroke-width:0.03125" />
</svg>
