<?xml version="1.0" encoding="UTF-8" standalone="no"?>
<svg
   viewBox="0 0 12 16"
   version="1.1"
   id="svg1023"
   width="12"
   height="16"
   fill="#4573B7"
   xmlns="http://www.w3.org/2000/svg"
   xmlns:svg="http://www.w3.org/2000/svg">
  <defs
     id="defs1027" />
  <!--! Font Awesome Pro 6.3.0 by @fontawesome - https://fontawesome.com License - https://fontawesome.com/license (Commercial License) Copyright 2023 Fonticons, Inc. -->
  <path
     d="M 0,0.75 C 0,0.334375 0.334375,0 0.75,0 h 10.5 C 11.665625,0 12,0.334375 12,0.75 12,1.165625 11.665625,1.5 11.25,1.5 H 11 V 2.09375 C 11,3.353125 10.5,4.5625 9.609375,5.453125 L 7.059375,8 9.60625,10.546875 C 10.5,11.4375 11,12.646875 11,13.90625 V 14.5 h 0.25 C 11.665625,14.5 12,14.834375 12,15.25 12,15.665625 11.665625,16 11.25,16 H 0.75 C 0.334375,16 0,15.665625 0,15.25 0,14.834375 0.334375,14.5 0.75,14.5 H 1 V 13.90625 C 1,12.646875 1.5,11.4375 2.390625,10.546875 L 4.940625,8 2.390625,5.453125 C 1.5,4.5625 1,3.353125 1,2.09375 V 1.5 H 0.75 C 0.334375,1.5 0,1.165625 0,0.75 Z M 3.453125,11.609375 C 3.33125,11.73125 3.21875,11.8625 3.11875,12 h 5.7625 c -0.1,-0.1375 -0.2125,-0.26875 -0.334375,-0.390625 L 6,9.059375 3.453125,11.60625 Z M 8.88125,4 C 9.28125,3.45 9.5,2.78125 9.5,2.09375 V 1.5 h -7 V 2.09375 C 2.5,2.784375 2.71875,3.45 3.11875,4 Z"
     id="path1021"
     style="stroke-width:0.03125" />
</svg>
