<?xml version="1.0" encoding="UTF-8" standalone="no"?>
<svg
   viewBox="0 0 16 16"
   version="1.1"
   id="svg4"
   width="16"
   height="16"
   fill="#d45500"
   xmlns="http://www.w3.org/2000/svg"
   xmlns:svg="http://www.w3.org/2000/svg">
  <defs
     id="defs8" />
  <!--!Font Awesome Pro 6.5.1 by @fontawesome - https://fontawesome.com License - https://fontawesome.com/license (Commercial License) Copyright 2024 Fonticons, Inc.-->
  <path
     d="M 8,16 A 8,8 0 1 1 8,0 8,8 0 1 1 8,16 Z m 2,-4.5 c 0.415625,0 0.75,-0.334375 0.75,-0.75 C 10.75,10.334375 10.415625,10 10,10 H 7.059375 L 11.28125,5.78125 c 0.29375,-0.29375 0.29375,-0.76875 0,-1.059375 -0.29375,-0.290625 -0.76875,-0.29375 -1.059375,0 l -4.21875,4.21875 V 5.75 c 0,-0.415625 -0.334375,-0.75 -0.75,-0.75 -0.415625,0 -0.75,0.334375 -0.75,0.75 v 5 c 0,0.415625 0.334375,0.75 0.75,0.75 z"
     id="path2"
     style="stroke-width:0.03125" />
</svg>
