<?xml version="1.0" encoding="UTF-8" standalone="no"?>
<svg
   viewBox="0 0 16 16"
   version="1.1"
   id="svg934"
   width="16"
   height="16"
   fill="#FF9900"
   xmlns="http://www.w3.org/2000/svg"
   xmlns:svg="http://www.w3.org/2000/svg">
  <defs
     id="defs938" />
  <!--! Font Awesome Pro 6.3.0 by @fontawesome - https://fontawesome.com License - https://fontawesome.com/license (Commercial License) Copyright 2023 Fonticons, Inc. -->
  <path
     d="M 8,16 A 8,8 0 1 0 8,0 8,8 0 1 0 8,16 Z M 8,4 c 0.415625,0 0.75,0.334375 0.75,0.75 v 3.5 C 8.75,8.665625 8.415625,9 8,9 7.584375,9 7.25,8.665625 7.25,8.25 V 4.75 C 7.25,4.334375 7.584375,4 8,4 Z m -1,7 a 1,1 0 1 1 2,0 1,1 0 1 1 -2,0 z"
     id="path932"
     style="stroke-width:0.03125" />
</svg>
