<?xml version="1.0" encoding="UTF-8" standalone="no"?>
<svg
   viewBox="0 0 16 16"
   version="1.1"
   id="svg1165"
   width="16"
   height="16"
   fill="#BE0B15"
   xmlns="http://www.w3.org/2000/svg"
   xmlns:svg="http://www.w3.org/2000/svg">
  <defs
     id="defs1169" />
  <!-- Font Awesome Pro 5.15.4 by @fontawesome - https://fontawesome.com License - https://fontawesome.com/license (Commercial License) -->
  <path
     d="M 8,0 C 3.581742,0 0,3.58171 0,8 c 0,4.41829 3.581742,8 8,8 4.418258,0 8,-3.581742 8,-8 C 16,3.581742 12.41829,0 8,0 Z m 4.197032,3.802968 c 2.111226,2.111226 2.258065,5.338097 0.667,7.601193 L 4.595806,3.136 C 6.860452,1.543871 10.086968,1.6929355 12.197032,3.802968 Z M 3.802968,12.197032 C 1.6917419,10.085806 1.5449032,6.858935 3.135968,4.595839 L 11.404194,12.864 C 9.139581,14.456129 5.913032,14.307097 3.802968,12.197032 Z"
     id="path1163"
     style="stroke-width:0.0322581" />
</svg>
