<?xml version="1.0" encoding="UTF-8" standalone="no"?>
<svg
   viewBox="0 0 16 16"
   version="1.1"
   id="svg834"
   width="16"
   height="16"
   fill="#BE0B15"
   xmlns="http://www.w3.org/2000/svg"
   xmlns:svg="http://www.w3.org/2000/svg">
  <defs
     id="defs838" />
  <!-- Font Awesome Pro 5.15.4 by @fontawesome - https://fontawesome.com License - https://fontawesome.com/license (Commercial License) -->
  <path
     d="M 8,0 C 3.580645,0 0,3.580645 0,8 c 0,4.419355 3.580645,8 8,8 4.419355,0 8,-3.580645 8,-8 C 16,3.580645 12.419355,0 8,0 Z M 7.483871,10.580645 c 0,0.283871 -0.232258,0.516129 -0.516129,0.516129 H 5.419355 c -0.283871,0 -0.516129,-0.232258 -0.516129,-0.516129 v -5.16129 c 0,-0.283871 0.232258,-0.516129 0.516129,-0.516129 h 1.548387 c 0.283871,0 0.516129,0.232258 0.516129,0.516129 z m 3.612903,0 c 0,0.283871 -0.232258,0.516129 -0.516129,0.516129 H 9.032258 c -0.283871,0 -0.516129,-0.232258 -0.516129,-0.516129 v -5.16129 c 0,-0.283871 0.232258,-0.516129 0.516129,-0.516129 h 1.548387 c 0.283871,0 0.516129,0.232258 0.516129,0.516129 z"
     id="path832"
     style="stroke-width:0.032258" />
</svg>
