<?xml version="1.0" encoding="UTF-8" standalone="no"?>
<svg
   xmlns:dc="http://purl.org/dc/elements/1.1/"
   xmlns:cc="http://creativecommons.org/ns#"
   xmlns:rdf="http://www.w3.org/1999/02/22-rdf-syntax-ns#"
   xmlns:svg="http://www.w3.org/2000/svg"
   xmlns="http://www.w3.org/2000/svg"
   xml:space="preserve"
   style="enable-background:new 0 0 438.533 438.533;"
   viewBox="0 0 438.533 438.533"
   height="512px"
   width="512px"
   y="0px"
   x="0px"
   id="Capa_1"
   version="1.1"><metadata
   id="metadata41"><rdf:RDF><cc:Work
       rdf:about=""><dc:format>image/svg+xml</dc:format><dc:type
         rdf:resource="http://purl.org/dc/dcmitype/StillImage" /><dc:title></dc:title></cc:Work></rdf:RDF></metadata><defs
   id="defs39" />
<g
   style="fill:#d45500"
   id="g4">
	<path
   style="fill:#d45500"
   id="path2"
   fill="#D80027"
   d="M409.133,109.203c-19.608-33.592-46.205-60.189-79.798-79.796C295.736,9.801,259.058,0,219.273,0   c-39.781,0-76.47,9.801-110.063,29.407c-33.595,19.604-60.192,46.201-79.8,79.796C9.801,142.8,0,179.489,0,219.267   c0,39.78,9.804,76.463,29.407,110.062c19.607,33.592,46.204,60.189,79.799,79.798c33.597,19.605,70.283,29.407,110.063,29.407   s76.47-9.802,110.065-29.407c33.593-19.602,60.189-46.206,79.795-79.798c19.603-33.596,29.403-70.284,29.403-110.062   C438.533,179.485,428.732,142.795,409.133,109.203z" />
</g>
<g
   id="g6">
</g>
<g
   id="g8">
</g>
<g
   id="g10">
</g>
<g
   id="g12">
</g>
<g
   id="g14">
</g>
<g
   id="g16">
</g>
<g
   id="g18">
</g>
<g
   id="g20">
</g>
<g
   id="g22">
</g>
<g
   id="g24">
</g>
<g
   id="g26">
</g>
<g
   id="g28">
</g>
<g
   id="g30">
</g>
<g
   id="g32">
</g>
<g
   id="g34">
</g>
</svg>