<?xml version="1.0" encoding="iso-8859-1"?>
<!-- Generator: Adobe Illustrator 16.0.0, SVG Export Plug-In . SVG Version: 6.00 Build 0)  -->
<!DOCTYPE svg PUBLIC "-//W3C//DTD SVG 1.1//EN" "http://www.w3.org/Graphics/SVG/1.1/DTD/svg11.dtd">
<svg xmlns="http://www.w3.org/2000/svg" xmlns:xlink="http://www.w3.org/1999/xlink" version="1.1" id="Capa_1" x="0px" y="0px" width="512px" height="512px" viewBox="0 0 612 612" style="enable-background:new 0 0 612 612;" xml:space="preserve">
<g>
	<g>
		<path d="M502.031,316.987c-12.207-3.251-25.021-5.011-38.25-5.011c-1.602,0-3.189,0.071-4.781,0.119    c-78.843,2.506-142.118,66.556-143.375,145.709c-0.015,0.799-0.062,1.587-0.062,2.391c0,15.85,2.515,31.102,7.119,45.422    c19.183,59.632,75.09,102.797,141.1,102.797c81.859,0,148.219-66.359,148.219-148.219    C612,391.565,565.345,333.855,502.031,316.987z M463.781,558.211c-54.133,0-98.016-43.883-98.016-98.016    s43.883-98.016,98.016-98.016s98.016,43.883,98.016,98.016S517.914,558.211,463.781,558.211z" fill="#006DF0"/>
		<rect x="392.062" y="445.852" width="138.656" height="33.469" fill="#006DF0"/>
		<path d="M124.312,115.945c9.228,0,16.734-7.507,16.734-16.734V58.57V20.32c0-9.228-7.506-16.734-16.734-16.734h-14.344    c-9.228,0-16.734,7.507-16.734,16.734v38.25v40.641c0,9.228,7.506,16.734,16.734,16.734H124.312z" fill="#006DF0"/>
		<path d="M387.281,115.945c9.228,0,16.734-7.507,16.734-16.734V58.57V20.32c0-9.228-7.507-16.734-16.734-16.734h-14.344    c-9.228,0-16.734,7.507-16.734,16.734v38.25v40.641c0,9.228,7.507,16.734,16.734,16.734H387.281z" fill="#006DF0"/>
		<path d="M38.25,498.445h247.416c-2.333-11.6-3.572-23.586-3.572-35.859c0-4.021,0.177-7.999,0.435-11.953H71.719    c-15.845,0-28.688-12.843-28.688-28.688v-229.5h411.188v88.707c3.165-0.163,6.354-0.253,9.562-0.253    c11.437,0,22.61,1.109,33.469,3.141V96.82c0-21.124-17.126-38.25-38.25-38.25h-31.078v40.641c0,22.41-18.23,40.641-40.641,40.641    h-14.344c-22.41,0-40.641-18.231-40.641-40.641V58.57H164.953v40.641c0,22.41-18.231,40.641-40.641,40.641h-14.344    c-22.41,0-40.641-18.231-40.641-40.641V58.57H38.25C17.126,58.57,0,75.697,0,96.82v363.375    C0,481.319,17.126,498.445,38.25,498.445z" fill="#006DF0"/>
		<circle cx="134.774" cy="264.164" r="37.954" fill="#006DF0"/>
		<circle cx="248.625" cy="264.164" r="37.954" fill="#006DF0"/>
		<circle cx="362.477" cy="264.164" r="37.954" fill="#006DF0"/>
		<circle cx="248.625" cy="378.914" r="37.953" fill="#006DF0"/>
		<circle cx="134.774" cy="378.914" r="37.953" fill="#006DF0"/>
	</g>
</g>
<g>
</g>
<g>
</g>
<g>
</g>
<g>
</g>
<g>
</g>
<g>
</g>
<g>
</g>
<g>
</g>
<g>
</g>
<g>
</g>
<g>
</g>
<g>
</g>
<g>
</g>
<g>
</g>
<g>
</g>
</svg>
