<?xml version="1.0" encoding="UTF-8" standalone="no"?>
<svg
   viewBox="0 0 12 16"
   version="1.1"
   id="svg4"
   width="12"
   height="16"
   fill="#4573B7"
   xmlns="http://www.w3.org/2000/svg"
   xmlns:svg="http://www.w3.org/2000/svg">
  <defs
     id="defs8" />
  <!--! Font Awesome Pro 6.2.1 by @fontawesome - https://fontawesome.com License - https://fontawesome.com/license (Commercial License) Copyright 2022 Fonticons, Inc. -->
  <path
     d="M 11.415625,2.918125 9.0834375,0.585625 C 8.70625,0.2106875 8.196875,0 7.66875,0 H 2 C 0.8953125,0 0,0.8953125 0,2 l 2.03125e-4,12 c 0,1.104375 0.895312495,2 1.999999975,2 H 10 c 1.1,0 2,-0.9 2,-2 V 4.33125 C 12,3.803125 11.790625,3.29375 11.415625,2.918125 Z M 10.5,14 c 0,0.276125 -0.223875,0.5 -0.5,0.5 H 2.000625 c -0.2761875,0 -0.5,-0.223875 -0.5,-0.5 L 1.5,2.0040625 c 0,-0.276125 0.223875,-0.5 0.5,-0.5 H 7 V 4 c 0,0.5521875 0.4478125,1 1,1 h 2.471875 v 9 z M 7.159375,7.290625 6,8.778125 4.840625,7.290625 C 4.5875,6.9625 4.11875,6.903125 3.790625,7.159375 3.4625,7.4125 3.403125,7.884375 3.659375,8.2125 L 5.05,10 3.6584375,11.789063 C 3.4035625,12.11625 3.463125,12.587813 3.7893125,12.841875 3.928125,12.946875 4.0875,13 4.221875,13 4.4455,13 4.6671875,12.900375 4.8146875,12.710938 L 6,11.221875 7.158125,12.710938 C 7.30625,12.9 7.528125,13 7.75,13 7.9101562,13 8.0721875,12.94825 8.21,12.841813 8.53625,12.587906 8.595625,12.116187 8.340875,11.789 L 6.95,10 8.3415625,8.2109375 C 8.5964375,7.88375 8.536875,7.4121875 8.2106875,7.158125 7.88125,6.903125 7.4125,6.9625 7.159375,7.290625 Z"
     id="path2"
     style="stroke-width:0.03125" />
</svg>
