<?xml version="1.0" encoding="UTF-8" standalone="no"?>
<svg
   viewBox="0 0 16 13.711225"
   version="1.1"
   id="svg1155"
   width="16"
   height="13.711225"
   fill="#4573B7"
   xmlns="http://www.w3.org/2000/svg"
   xmlns:svg="http://www.w3.org/2000/svg">
  <defs
     id="defs1159" />
  <!--! Font Awesome Pro 6.3.0 by @fontawesome - https://fontawesome.com License - https://fontawesome.com/license (Commercial License) Copyright 2023 Fonticons, Inc. -->
  <path
     d="m 1.7995983,6.855613 5.3523767,5.095291 c 0.028565,0.02857 0.071413,0.04642 0.1142602,0.04642 0.089266,0 0.1642491,-0.07141 0.1642491,-0.164249 V 8.855168 c 0,-0.474894 0.3820575,-0.856951 0.8569515,-0.856951 H 14.286097 V 5.71301 H 8.2874358 c -0.474894,0 -0.8569515,-0.382057 -0.8569515,-0.856951 V 1.878152 c 0,-0.08927 -0.071413,-0.164249 -0.1642491,-0.164249 -0.042848,0 -0.082124,0.01785 -0.1142602,0.04642 z M 0.47132337,7.958938 C 0.17139031,7.669717 0,7.273376 0,6.855613 0,6.437849 0.17139031,6.041509 0.47132337,5.752287 L 5.970096,0.517742 C 6.3200179,0.185673 6.7842,0 7.2662352,0 8.3017184,0 9.1443874,0.839098 9.1443874,1.878152 V 3.999107 H 14.286097 C 15.232314,3.999107 16,4.766793 16,5.71301 v 2.285205 c 0,0.946217 -0.767686,1.713903 -1.713903,1.713903 H 9.1443874 v 2.120955 c 0,1.035483 -0.8390984,1.878152 -1.8781522,1.878152 -0.4820352,0 -0.9462173,-0.185673 -1.2961392,-0.517741 z"
     id="path1153"
     style="stroke-width:0.0357063" />
</svg>
