<?xml version="1.0" encoding="UTF-8" standalone="no"?>
<svg
   viewBox="0 0 15.996439 16"
   version="1.1"
   id="svg4"
   width="15.996439"
   height="16"
   xmlns="http://www.w3.org/2000/svg"
   xmlns:svg="http://www.w3.org/2000/svg">
  <defs
     id="defs8" />
  <!--! Font Awesome Pro 6.4.2 by @fontawesome - https://fontawesome.com License - https://fontawesome.com/license (Commercial License) Copyright 2023 Fonticons, Inc. -->
  <path
     d="m 15.562725,0.17508319 c 0.315559,0.21870467 0.48115,0.5967513 0.421787,0.97479791 L 13.984927,14.147186 c -0.04687,0.303063 -0.231202,0.568633 -0.499896,0.718601 -0.268695,0.149969 -0.590503,0.168715 -0.874819,0.04999 L 8.873486,13.362974 6.7333047,15.678119 C 6.4552373,15.981181 6.017828,16.081161 5.6335326,15.931192 5.2492373,15.781223 4.9992891,15.409425 4.9992891,14.99701 v -2.611958 c 0,-0.124974 0.046865,-0.2437 0.1312228,-0.334306 L 10.366927,6.336306 C 10.548139,6.1394718 10.541891,5.8364096 10.35443,5.6489484 10.166968,5.4614873 9.8639057,5.4489899 9.6670715,5.627078 L 3.3121389,11.272782 0.55333579,9.8918189 C 0.22215444,9.7262282 0.00969848,9.3950469 3.2541787e-4,9.0263733 -0.00904763,8.6576998 0.18466221,8.314021 0.50334615,8.1296842 L 14.500445,0.13134226 c 0.334306,-0.19058549 0.74672,-0.17183938 1.06228,0.0437409 z"
     id="path2"
     style="stroke-width:0.0312435" />
  <path
     style="fill:#4573b7;fill-opacity:1;stroke:#4573b7;stroke-width:0.0183276;stroke-opacity:1"
     d="M 5.8098511,15.972144 C 5.6105565,15.932249 5.393475,15.807085 5.2586889,15.654357 5.1621,15.544911 5.0614928,15.345495 5.0327051,15.206429 5.0191166,15.140786 5.0126767,14.650708 5.0128361,13.694402 l 2.364e-4,-1.414906 0.041002,-0.08691 C 5.083356,12.130518 5.8520414,11.280317 7.7434143,9.2180545 9.5354938,7.2640568 10.408187,6.2996065 10.442581,6.2350902 10.553175,6.0276375 10.52196,5.809112 10.358468,5.6462459 10.196005,5.4844049 9.9686596,5.4458931 9.7732436,5.5471106 9.7265893,5.5712755 8.3007161,6.8250562 6.4992841,8.4259268 L 3.3079738,11.261934 1.8647544,10.534784 C 0.43652331,9.8151861 0.42027937,9.8063848 0.30063742,9.6873223 0.0304613,9.4184546 -0.05849449,9.026643 0.07016485,8.6721904 0.12885059,8.5105131 0.21134065,8.3867622 0.33769888,8.2708379 0.4218003,8.1936812 1.8728475,7.3573398 7.5099583,4.1369558 11.396714,1.9165198 14.624844,0.08311647 14.683582,0.06272628 15.230989,-0.1273 15.841007,0.22724545 15.963145,0.80641466 c 0.01488,0.0705613 0.0272,0.15295407 0.02737,0.18309506 6.1e-4,0.10517418 -2.017083,13.17871828 -2.052277,13.29762028 -0.13917,0.470191 -0.658576,0.777695 -1.140088,0.674967 -0.05342,-0.0114 -0.95864,-0.378623 -2.011606,-0.81606 l -1.914483,-0.79534 -0.066937,0.06921 c -0.036815,0.03807 -0.5203294,0.559932 -1.0744761,1.159703 -0.5541467,0.59977 -1.0453207,1.125076 -1.0914978,1.167344 -0.2078323,0.190242 -0.5456484,0.281972 -0.8293024,0.225189 z"
     id="path2012" />
</svg>
