<?xml version="1.0" encoding="UTF-8" standalone="no"?>
<svg
   viewBox="0 0 22.857143 16"
   version="1.1"
   id="svg4"
   width="22.857143"
   height="16"
   fill="#4573B7"
   xmlns="http://www.w3.org/2000/svg"
   xmlns:svg="http://www.w3.org/2000/svg">
  <defs
     id="defs8" />
  <!--!Font Awesome Free 6.5.1 by @fontawesome - https://fontawesome.com License - https://fontawesome.com/license/free Copyright 2024 Fonticons, Inc.-->
  <path
     d="m 2.5714286,2 a 2,2 0 1 1 4,0 2,2 0 1 1 -4,0 z M 2.2857143,7.632143 c -0.3571429,0.4 -0.5714286,0.932143 -0.5714286,1.510714 0,0.578572 0.2142857,1.110714 0.5714286,1.510714 z M 7.4428571,5.871429 C 6.3821429,6.810714 5.7142857,8.185714 5.7142857,9.714286 c 0,1.225 0.4285714,2.35 1.1428572,3.232143 v 0.767857 c 0,0.632143 -0.5107143,1.142857 -1.1428572,1.142857 H 3.4285714 c -0.6321428,0 -1.1428571,-0.510714 -1.1428571,-1.142857 V 12.757143 C 0.93571429,12.114286 0,10.739286 0,9.142857 c 0,-2.210714 1.7892857,-4 4,-4 h 1.1428571 c 0.8571429,0 1.65,0.267857 2.3,0.725 z M 16,13.714286 v -0.767857 c 0.714286,-0.882143 1.142857,-2.007143 1.142857,-3.232143 0,-1.528572 -0.667857,-2.903572 -1.728571,-3.846429 0.65,-0.457143 1.442857,-0.725 2.3,-0.725 h 1.142857 c 2.210714,0 4,1.789286 4,4 0,1.596429 -0.935714,2.971429 -2.285714,3.614286 v 0.957143 c 0,0.632143 -0.510715,1.142857 -1.142858,1.142857 H 17.142857 C 16.510714,14.857143 16,14.346429 16,13.714286 Z M 16.285714,2 a 2,2 0 1 1 4,0 2,2 0 1 1 -4,0 z m 4.285715,5.632143 v 3.025 c 0.357142,-0.403572 0.571428,-0.932143 0.571428,-1.510714 0,-0.578572 -0.214286,-1.110715 -0.571428,-1.510715 z M 11.428571,0 a 2.2857145,2.2857145 0 1 1 0,4.571429 2.2857145,2.2857145 0 1 1 0,-4.571429 z M 8.5714286,9.714286 c 0,0.578571 0.2142857,1.107143 0.5714285,1.510714 V 8.203571 C 8.7857143,8.607143 8.5714286,9.135714 8.5714286,9.714286 Z M 13.714286,8.203571 v 3.025 c 0.357143,-0.403571 0.571428,-0.932142 0.571428,-1.510714 0,-0.578571 -0.214285,-1.110714 -0.571428,-1.510714 z M 16,9.714286 c 0,1.596428 -0.935714,2.971428 -2.285714,3.614285 v 1.528572 C 13.714286,15.489286 13.203571,16 12.571429,16 H 10.285714 C 9.6535714,16 9.1428571,15.489286 9.1428571,14.857143 v -1.528572 c -1.35,-0.642857 -2.2857142,-2.017857 -2.2857142,-3.614285 0,-2.210715 1.7892857,-4 4.0000001,-4 H 12 c 2.210714,0 4,1.789285 4,4 z"
     id="path2"
     style="stroke-width:0.0357143" />
</svg>
