<?xml version="1.0" encoding="UTF-8" standalone="no"?>
<svg
   viewBox="0 0 16 11.2"
   version="1.1"
   id="svg1538"
   width="16"
   height="11.2"
   fill="#4573B7"
   xmlns="http://www.w3.org/2000/svg"
   xmlns:svg="http://www.w3.org/2000/svg">
  <defs
     id="defs1542" />
  <!--! Font Awesome Pro 6.3.0 by @fontawesome - https://fontawesome.com License - https://fontawesome.com/license (Commercial License) Copyright 2023 Fonticons, Inc. -->
  <path
     d="M 3.2,2.4 A 1.2,1.2 0 1 0 3.2,3.9268006e-8 1.2,1.2 0 1 0 3.2,2.4 Z M 2.8,3.2 C 1.2525,3.2 0,4.4525 0,6 0,7.1175 0.655,8.08 1.6,8.53 V 9.6 c 0,0.4425 0.3575,0.8 0.8,0.8 H 4 c 0.4425,0 0.8,-0.3575 0.8,-0.8 V 8.8 C 4.8,8.4675 4.5325,8.2 4.2,8.2 3.8675,8.2 3.6,8.4675 3.6,8.8 V 9.2 H 2.8 V 8.8 7.6 4.4 H 3.6 C 3.915,4.4 4.2075,4.49 4.455,4.6475 4.6525,4.2925 4.9075,3.975 5.21,3.7075 4.755,3.3875 4.2,3.2 3.6,3.2 Z M 1.6,4.9425 V 7.06 C 1.35,6.7775 1.2,6.405 1.2,6 1.2,5.595 1.35,5.2225 1.6,4.9425 Z M 12.4,4.4 h 0.8 V 7.6 8.8 9.2 H 12.4 V 8.8 c 0,-0.3325 -0.2675,-0.6 -0.6,-0.6 -0.3325,0 -0.6,0.2675 -0.6,0.6 v 0.8 c 0,0.4425 0.3575,0.8 0.8,0.8 h 1.6 c 0.4425,0 0.8,-0.3575 0.8,-0.8 V 8.53 C 15.345,8.08 16,7.1175 16,6 16,4.4525 14.7475,3.2 13.2,3.2 h -0.8 c -0.6,0 -1.155,0.1875 -1.61,0.5075 0.3,0.2675 0.5575,0.585 0.755,0.94 C 11.7925,4.49 12.085,4.4 12.4,4.4 Z M 14.8,6 c 0,0.405 -0.15,0.7775 -0.4,1.0575 V 4.9425 C 14.65,5.225 14.8,5.595 14.8,6 Z M 14,1.2 a 1.2,1.2 0 1 0 -2.4,0 1.2,1.2 0 1 0 2.4,0 z M 8,2.8 A 1.4,1.4 0 1 0 8,3.9268006e-8 1.4,1.4 0 1 0 8,2.8 Z M 7.6,3.6 c -1.5475,0 -2.8,1.2525 -2.8,2.8 0,1.1175 0.655,2.08 1.6,2.53 v 1.47 c 0,0.4425 0.3575,0.8 0.8,0.8 h 1.6 c 0.4425,0 0.8,-0.3575 0.8,-0.8 V 8.93 C 10.545,8.48 11.2,7.5175 11.2,6.4 11.2,4.8525 9.9475,3.6 8.4,3.6 Z m 0,5.6 V 8 4.8 H 8.4 V 8 9.2 10 H 7.6 Z M 6.4,7.4575 C 6.15,7.175 6,6.805 6,6.4 6,5.995 6.15,5.6225 6.4,5.3425 V 7.46 Z m 3.2,0 V 5.3425 C 9.85,5.625 10,5.995 10,6.4 10,6.805 9.85,7.1775 9.6,7.4575 Z"
     id="path1536"
     style="stroke-width:0.025" />
</svg>
