<?xml version="1.0" encoding="UTF-8" standalone="no"?>
<svg
   viewBox="0 0 16 16"
   version="1.1"
   id="svg834"
   width="16"
   height="16"
   fill="#4573B7"
   xmlns="http://www.w3.org/2000/svg"
   xmlns:svg="http://www.w3.org/2000/svg">
  <defs
     id="defs838" />
  <!--! Font Awesome Pro 6.3.0 by @fontawesome - https://fontawesome.com License - https://fontawesome.com/license (Commercial License) Copyright 2023 Fonticons, Inc. -->
  <path
     d="m 7.5642856,10.992857 c -0.3892857,0.389286 -1.0249998,0.389286 -1.4142857,0 L 3.8642856,8.7071427 c -0.390357,-0.3892856 -0.390357,-1.0249998 0,-1.4142854 0.3892857,-0.389286 1.0250001,-0.389286 1.4142858,0 L 6.8571427,8.8714286 10.721429,5.0071427 c 0.389285,-0.3892857 1.025,-0.3892857 1.414285,0 0.389286,0.389286 0.389286,1.0250001 0,1.4142858 z M 0,2.2857142 C 0,1.0232144 1.0232143,0 2.2857143,0 H 13.714286 C 14.975,0 16,1.0232144 16,2.2857142 V 13.714286 C 16,14.975 14.975,16 13.714286,16 H 2.2857143 C 1.0232143,16 0,14.975 0,13.714286 Z m 1.7142857,0 V 13.714286 c 0,0.314285 0.2557143,0.571428 0.5714286,0.571428 H 13.714286 c 0.314285,0 0.571428,-0.257143 0.571428,-0.571428 V 2.2857142 c 0,-0.3157143 -0.257143,-0.5714285 -0.571428,-0.5714285 H 2.2857143 c -0.3157143,0 -0.5714286,0.2557142 -0.5714286,0.5714285 z"
     id="path832"
     style="stroke-width:0.0357143" />
</svg>
