<svg xmlns="http://www.w3.org/2000/svg" width="1024" height="1024" preserveAspectRatio="none" style="display:block" viewBox="0 0 2048 2048" fill="#FFFFFF"><defs><linearGradient id="Gradient1" x1="839.409" x2="846.51" y1="363.657" y2="386.615" gradientUnits="userSpaceOnUse"><stop class="stop0" offset="0" stop-color="#080607" stop-opacity="0"/><stop class="stop1" offset="1" stop-color="#232424" stop-opacity=".008"/></linearGradient></defs><path fill="#FFFFFF" d="M1594.76 171.493c18.52 19.777 25.59 98.673 25.1 126.184-.25 13.993-3.85 31.323-3.89 45.126-.13 39.71-9.45 73.681-20.14 111.339 12.36-2.456 20.53-7.526 31.42-13.673 3.93-2.218 5.49-4.814 10.02-6.171 7.58 20.474-45.2 40.486-45.48 49.453-2.49 80.385 5.97 161.369-.12 241.739a767 767 0 0 1-8.73 74.203c-7.78 46.88-17.61 90.579-17.42 138.417.04 9.081-2.29 22.017-3.13 31.42 4.5-14.85 6.8-30.281 9.8-45.486 6.53-37.568 12.27-74.65 19.71-112.06 7.46-37.513 13.37-55.944 33.39-88.677-3.16 55.388-1.72 110.893-6.98 166.191-6.72 70.808-19.38 144.162-22.29 215.002-1.78 38.27-.19 76.62 4.75 114.62 4.01 29.65 10.61 58.89 11.38 88.85.69 27.04-21.17 45.49-25.44 70.16-1.47 8.47-.19 27.33.01 36.77.21 13.24.04 26.48-.5 39.71-1.6 44.74-3.07 99.64-13.3 142.32-6.47 26.97-19.9 61.75-29.38 88.69 1.5-35.15.71-78.78.35-114.22-3.51 16.41-7.35 31.9-13.71 47.5-3.88 9.49-10.83 19.38-13.18 29.15-1.93 8.02.11 17.4 2.29 25.24 3.93 14.15-.65 32.47-7.34 45.78-10.38 20.64-28.01 49.11-41.88 67.63-8.24 11-19.22 16.07-28.19 32.44-13.64 24.9-15.73 43.39-23.19 68.81-4.99-35.07-10.35-113.01 3.41-145.55 7.87-18.62 22.51-39.23 31.92-56.47 26.08-47.84-7.15-56.75-20.61-97.73-1.81-5.51-2.12-10.07.74-15.18 9.48-7.87 31.73-4.98 44.06-5.48 14.85-.6 29.75-1.55 44.6-.58 2.46.16 4.3-.31 5.95-2.01-.84-2.45-3.42-4.53-5.72-5.72-11.53-5.93-32.78-10.63-45.55-10.69-17.69-.07-33.76 4.02-51.4 1.93-9.63-1.15-19.18-8.94-27.5-7.12-2.46 2.56-1.77 1.08-2.12 4.6 3.05 7.23 7.85 9.62 14.31 13.55 7.59 101.76-97.94-46.63 18.79-44.46 28.42.52 57.76 5.58 85.68 7.14-31.57-17.87-51.6-14.16-87.5-14.28-2.72.06-3.53.26-6.15-.51l-.5-1.49c1.07-2.06 34.23-30.43 39.89-35.96 9.67-9.26 18.52-19.34 26.45-30.14 13.22-18.34 20.29-41.2 4.27-61.96-6.93-8.97-24.75-13.32-25.79-27.88-.82-11.36 4.61-17.75 10.93-25.73-24.65-69.51 29.18-35.3 69.36-33.35l1.59.07c-17.22-9.09-65.32-32.84-86.25-30.52-11 1.21 4.48 45.57-5.13 62.09-2.12 1.42-2.89 2.21-5.6 1.47-6.42-1.74-13.44-11.38-16.9-17.01-9.78-15.91-16.28-43.49-11.51-61.87 1.59-6.11 5.05-11.25 10.63-14.34 23.18-12.84 98.68 19.9 124.77 26.65-19.29-14.42-51.09-20.02-67.59-32.63-18.68-39.95 15.11-178.15 28.76-222.98-17.62-4.521-38.42-5.701-56.69-7.227-.36 6.427-1.09 19.637 1.4 25.237 4.56 10.27 17.38 18.41 6.91 30.58-2.87 1.57-3.87 1.72-7.13 1.61-31.47-1.06-38.36-34.12-35.64-59.577.84-12.118 4.98-26.504 15.14-34.219 18.08-13.746 49.6-3.422 70.59-.749 2.74-23.979 8.14-46.851 9.94-71.92 5.83-81.163-3.87-174.004-16.6-254.451-3.91 5.535-7.54 13.576-10.58 18.162-15.62 23.492-9.88 35.461-13.15 60.277-12.76 96.787-45.15 199.116-124.83 261.745-33.32 26.186-75.26 51.392-115.93 63.162-4.74 1.37-13.17 3.91-17.73 3.41l-.27-1.04c7.76-14.28 56.96-42.115 73.66-53.02a763 763 0 0 0 37.63-26.147c83.59-61.71 117.05-135.131 123.52-236.628 1.13-17.626 2.37-33.664 1.37-51.477-7.73-12.65-22.9-20.891-28.56-34.209-6.02-16.738-3.19-32.389-2.61-49.965.76-22.998-10.19-51.857 11-68.149 18.47-14.209 36.18-2.42 52.4-8.765 5.47-4.558 5.81-24.364 8.34-32.726 7.62-25.15 18.52-69.832 36.54-88.735 4.19-4.394 27.39-15.528 34.43-19.753.03-33.988 10.33-62.732 10.08-95.244-.29-37.42 6.98-66.357 12.55-102.499m-111.38 460.29c2.1-15.79 8.14-67.15 3.76-80.956-5.99-6.008-25.62-2.842-34.54-4.765-1.86 16.894-2.43 46.524 4.22 62.327 2.87 6.823 17.05 23.22 24.14 25.74 1.95-1.091 1.11-.338 2.42-2.346m61.37 10.987c.69 3.411-.03 3.08 1.78 4.957.96-2.804.92-5.846.82-8.795-1.29-37.367-3.72-74.687-3.3-112.096.05-4.322.72-19.919-1.35-22.046-19.37 13.762-7.64 61.282-6.02 82.064 1.41 18.273 6.29 37.435 8.07 55.916m-22.23-155.821c9.18-4.183 10.86-5.28 21.12-5.767.8-7.582 5.68-48.763 3.9-54.525-6.71 9.421-26.63 51.103-25.02 60.292"/><path fill="#FFFFFF" d="M1030.64 1086.13c3.12-.29 6.39-.87 8.73 1.17 5.53 24.27 3.87 126.04-6.57 152-2.58 6.42-9.12 17.42-16.58 19.87-4.8 1.73-11.12.23-15.47-2.28-28.366-16.35-19.004-29.98-6.737-50.95 9.607-16.42.119-56.53-5.163-73.4-6.697 3.03-8.861 4.23-14.943 8.35 17.45 35.58 29.123 61.91-23.296 40.39 4.605 4.8 12.703 10.53 15.917 14.89 12.254 16.62-4.267 40.27 10.155 55.8 8.647 9.31 27.767 19.16 38.977 24.54 24.32 11.95 48.57 20.61 75.69 12.4 21.55-6.54 44.59-16.28 67.73-14.64 27.64 1.96 40.82 23.88 57.01 42.93-2.99 6.72-4.54 12.85-6.12 20.1-5.91 27.16 18.17 41.69 23.8 65.53 3.72 15.74 1.53 44.95 4.54 58.6 6.21 28.12 44.41 188.59 55.18 205.75 2.35-1.11 3.28-1.81 5.86-1.92 4.27 10.85 8.67 32.38 13.13 46.09-.45-20.81-3.3-35.47-1.22-56.64 11.22 4.83 18.24 9.96 30.72 13.53 32.1 9.33 51.61-27.57 80.8-32.81 14.66-2.62 21.52 4.5 23.16 18.66 2.66 23.02-7.5 43.65-21.36 61.3-24.15 33.56-52.27 35.43-80.73 63.12-15.85 15.43-57.28 49.51-80.12 29.02-2.96-2.64-2.61-8.08-2.2-11.59l-.51-.84-.8-1.42c-5.73-9.85-9.2-22.1-13.89-32.95-4.61-10.68-14.19-25.6-16.6-36.4-2.42-10.82 15.44-8.43 19.97-14.06-.18-5.91-12.85-25.3-16.3-31.78l-51.04-95.45c-11.39-20.81-23.93-40.63-32.99-62.74-11.96-29.16-3.43-62.55-17.5-90.62-11.81-23.59-35.42-14.46-56.47-21.49-20.68-6.9-27.42-31.25-38.7-47.9-7.86-11.6-15.05-21.7-25.07-31.78a269.7 269.7 0 0 0-48.765-38.56c-24.306-15.03-44.442-23.57-65.267-44.97-19.51-20.05-27.417-40.62-43.013-62.97-7.024-10.92-24.345-16.52-29.49-28.45-4.74-10.99-6.768-37.83 6.991-43.56 7.284-3.04 13.942.78 20.515 3.53 10.318 14.3 23.41 47.82 44.795 48.66l-.014.11c-6.57-6.77-9.362-13.89 1.415-18.52 33.465-14.38 67.751-26.37 100.199-43.1 9.244-4.77 20.484-10.62 30.194-14.05z"/><path fill="#FFFFFF" d="M1109.84 1052.06c16.36-1.45 21.28 18.62 41.66 17.11 32.91-2.43 65.65-6.7 98.42-10.01 29.73-2.97 55.98-8.05 85.63-1.89 51.35 10.66 77.89 49.28 71.4 101.07-2.98 23.77-13.01 39.66-22.49 61.46-28.53 65.57-29.41 138.97-47.67 207.46-1.44 5.4-4.38 11.36-5.42 15.97 1.39-.65 12.63-16.24 14.97-18.87 24.06-26.97 44.7-23.19 76.99-25.84 13.64-1.12 35.86-12.56 51.09-12.35 12.94.18 8.21 19.2 6.33 27.22-16.29 52.29-64.42 86.69-112.18 108.56-21.63 9.9-43.67 20.94-68.17 14.28-22.13-6.01-23.42-29.34-29.39-47.42-3.05-9.33-7.1-17.7-11.72-26.45-16.81-34.75-.49-39.58 31.87-33.74-3.57-61.3-35.87-135.51-14.28-197.72 8.33-24 53.24-41.81 76.01-51.75-54.81 9.7-108.1 52.59-163.58 58.93-10.31 1.18-2.98-47.58-3.74-57.16-2.09-26.16-.02-62.54-13.69-85.35-3.24-5.41-17.25-7.99-22.81-7.79-47.39-2.53-44.48 5.39-41.61 51.43 1.25 17.23 2.12 34.49 2.63 51.76.62 21.08 4.56 62.71-10.78 78.44-11.02 11.3-47.36 14.09-59.05 1.72-9.41-9.96 3.02-23.32 5.08-33.89 8.01-28.31 7.84-55.81 9.18-84.94l3.64-74.03c9.24-6.66 40.63-21.11 51.68-26.21"/><path fill="#FFFFFF" d="m878.628 483.919 1.43.112c1.331 1.137 4.754 12.26 5.136 14.285 1.946 11.701 13.307 37.708 5.71 48.248-23.166 32.137-37.362-16.156-43.306-19.292-2.915.501-4.924.42-6.795 2.576-2.332 6.886-.003 9.41.625 15.727 2.559 25.57 33.247 30.224 50.796 42.689 7.97 4.434 12.112 14.238 18.026 20.001 22.973 22.387 27.375 36.287 15.314 68.125-35.008-2.483-123.471-30.979-147.416 8.535-12.58 20.758-16.735 75.726-14.828 99.556 3.135 33.864 13.178 67.058 20.395 100.289 11.229 51.707 19.236 105.707 32.8 156.77-34.974 40.74-107.42 46.78-150.338 16.24-7.408-5.27-13.403-11.68-19.476-18.36-30.679-33.11-37.24-101.915-26.345-144.161-20.905-47.135-17.903-115.049 23.413-150.053 8.066-6.833 16.792-12.818 25.022-19.573-7.908 48.912-22.181 78.488-7.381 131.819-.619-48.303 12.766-121.913 33.709-165.768 15.071-31.56 39.44-56.581 73.8-66.221 10.592-2.971 21.855-3.864 32.326-6.957 4.044-1.195 5.565-6.329 7.268-10.276a341 341 0 0 0-1.746-7.813c-7.692-31.529-33.841-37.146-55.386-50.287l-1.173-.73c17.555-13.074 36.394-21.105 55.948-30.68a3257 3257 0 0 1 72.472-34.801"/><path fill="#FFFFFF" d="M1254.24 620.994c14.42-.242 9.54 12.163 7.02 21.189-8.68 6.439-35.35 16.142-46.31 20.165a2260 2260 0 0 1-106.61 35.939c-19.88 6.333-51.73 15.695-69.66 23.691 7.69 23.503 5.64 44.411.67 68.427-2.41 11.641-4.59 35.863-13.05 43.212-12.52 2.202-108.073-33.774-123.476-40.939 15.349 14.829 44.672 28.76 39.363 54.082-12.919 61.631-58.022 128.031-106.478 167.23-3.631 2.5-4.837 3.68-8.669 3.28-.669-.68-1.648-1.59-1.822-2.32-5.752-24.415-9.244-61.509-13.045-85.479-9.218-58.133-26.694-112.05-33.022-170.419-1.863-17.179-1.799-41.602 4.093-57.998 3.228-8.983 10.775-17.417 19.549-20.791 47.675-18.332 163.643 8.47 208.597 26.461 5.52-1.625 11.15-3.915 16.61-5.878 57.95-20.86 116.63-39.474 174.5-60.573 17.11-6.238 34.59-13.707 51.74-19.279"/><path fill="#FFFFFF" d="M1344.09 536.144c21.06-2.066 13.87 17.54 26.48 27.589 11.23 8.941 38.12-19.401 46.84-11.663 7.41 32.991-42.06 39.907-51.06 64.131-5.71 15.382 9.6 38.731 5.1 56.785-3.4 13.656-8.14 22.351-16.61 33.819-3.75 5.07-10.92 12.668-12.19 18.437-4.62 20.905-6.12 42.917-10.5 63.877-18.91 90.46-51.19 181.818-118.88 247.601-6.45 6.27-39.02 20.9-46.5 16.32-2.39-8.29 36.57-42.54 44.12-50.81 8.3-9.261 16.2-18.869 23.68-28.802 39.17-51.728 64.84-129.577 80.08-192.463 3.31-18.112 6.15-36.309 8.5-54.57 1.44-11.227 2.17-24.135 4.86-34.924 1.99-8.008 14.26-12.8 21.73-16.539-11.59-4.004-20.66-6.149-29.08 4.391-10.03 12.567-16.41 29.067-25.85 41.714-22.96 31.1-47.28 60.149-74.06 87.905-30.5 31.622-62.9 61.81-110.28 47.379-13.28-4.045-25.93-10.311-39.2-14.746-6.23-2.079-28.11-7.614-31.54-11.091.63-13.524 6.33-35.45 8.79-49.532 1.76-10.142 4.86-33.414 7.85-41.797 14.63-13.728 57.39 24.675 82.29 16.878 30.8-9.644 127.53-93.592 138.24-123.369 6.52-18.146-1.84-42.036 6.81-57.634 10.84-19.566 39.99-33.06 60.38-38.886"/><path fill="#FFFFFF" d="M959.466 831.715c15.896 2.115 27.041 5.962 41.074 10.262 80.07 24.533 21.39 84.387 66.67 126.955 25.11 23.61 69.23 31.968 93.07 62.268 2.82 3.59 3.54 4.98 3.08 9.23-9.82 4.25-48.26-24.01-81.72-12.73 1.16 4.6 3.04 9.44.82 13.7-4.69 9.03-22.2 13.66-31.66 17-9.07-46.92-13.26-39.97 33.47-62.208-6.81-2.473-19.61-5.64-26.36-3.436-21.47 7.005-43.3 21.114-64.159 30.274-38.599 16.93-76.403 35.65-115.569 50.84-4.52 1.75-4.49 1.82-5.747 5.01 1.348 4.74 1.542 5.93.861 10.8 3.312.52 147.224-61.54 160.074-67.93.5 5.03 1.61 10.69 2.38 15.75 1.3 8.53 1.57 19.53-3.95 26.55-3.3 4.19-16.74 13.32-20.98 15.26-19.012 8.73-115.2 56.27-128.348 57.46-3.663-5.8-9.231-26.86-14.115-30-21.907-14.1-62.07-14.92-40.338-54.28 6.326-11.45 21.82-18.38 32.069-27.02 24.833-20.93 48.953-46.016 63.308-75.562 7.7-15.815 11.884-33.756 16.676-50.411z"/><path fill="#FFFFFF" d="M774.969 394.341c-29.145 15.336-45.884 47.967-55.438 78.15-1.586 5.01-2.101 10.099-4.773 14.282l-1.775.117c-2.895-2.992-2.182-6.782-2.262-10.602-1.832-82.674 59.843-155.025 145.538-151.488 40.175 1.659 71.476 19.274 100.66 45.771 21.223 19.269 23.673 23.479 52.051 31.52l1.05 1.391c-6.44 6.484-59.565 30.497-70.442 35.677l-71.556 34.659a7829 7829 0 0 0-141.494 71.521c-9.074-35.818-4.004-75.703 14.809-107.635a161.3 161.3 0 0 1 34.423-40.57c5.56-4.041 7.569-5.969 12.412-10.737-5.248 2.836-8.21 4.586-13.203 7.944m18.976 13.738c8.207-6.664 13.99-13.099 21.671-20.046 27.782-22.051 49.349-28.575 84.088-28.129-13.239-4.781-20.54-4.129-34.32-3.642-37.385 6.331-53.427 19.258-71.439 51.817m118.911-26.957c2.667.389 7.814 1.38 10.269 1.118-6.53-3.733-21.651-4.14-28.97-4.002-1.93.568-7.032 1.948-8.615 2.662l.01 1.135-.273-.273c10.302-.736 17.226-1.55 27.579-.64"/><path fill="#FFFFFF" d="M865.384 356.262c13.78-.487 21.081-1.139 34.32 3.642-34.739-.446-56.306 6.078-84.088 28.129-7.681 6.947-13.464 13.382-21.671 20.046 18.012-32.559 34.054-45.486 71.439-51.817"/><path fill="#FFFFFF" fill-opacity=".078" d="M894.155 378.238c7.319-.138 22.44.269 28.97 4.002-2.455.262-7.602-.729-10.269-1.118-10.353-.91-17.277-.096-27.579.64l.273.273-.01-1.135c1.583-.714 6.685-2.094 8.615-2.662"/><path fill="#FFFFFF" d="M975.863 440.013c5.055 3.891 9.338 50.572 14.182 59.475 3.307 6.079 8.164 16.765 11.615 23.04 5.09 9.24-8.624 19.012-12.339 28.822 1.757 11.403 11.039 39.633 5.762 47.979-10.623 16.815-48.504 17.359-63.488 8.675-19.931-15.318-13.597-34.437-19.54-56.248-6.45-23.665-13.658-48.155-22.111-71.182 8.228-4.648 21.835-10.642 30.81-14.862z"/><path fill="#FFFFFF" d="M1125.88 1100.15c7.86-.54 32.55-1.1 36.18 5.79 13.51 25.63 12.35 69.9 12.97 98.3.47 21.74-4.59 38.42-18.74 51.94-7.02 4.57-28.79 13.87-35.99 7.83-1.37-3.43-1.98-7.07-1.89-10.74 1-38.59 3.21-76.28-.32-114.93-.84-9.23-.76-20.6.8-29.66.79-4.54 3.16-6.39 6.99-8.53"/><path fill="#FFFFFF" d="M848.039 1203.31c8.879 2.53 10.606 6.67 16.158 12.94 21.678 24.46 1.848 44.5 10.061 70.65 1.596 5.08 8.684 9.74 13.554 11.23 20.908 6.57 27.943-19.01 39.494-24.62 3.269-.51 6.808 2.05 9.94 3.75l4.444 8.73c-.919 5.14-2.126 9.88-3.369 14.93-5.103 12.4-13.311 19.92-24.892 26.23-14.951 8.14-29.911 9.21-44.271-1.34-26.875-19.73-17.78-52.71-17.315-80.83.21-12.74-1.757-28.86-3.804-41.67"/><path fill="#FFFFFF" d="M581.814 818.369c3.064.114 1.617-.286 4.374 1.586.951 1.863 1.841 3.485 2.009 5.625.226 2.881-.975 5.333-2.862 7.419-15.252 16.865-104.181 32.637-128.402 35.892a579 579 0 0 1-65.182 5.152c-2.634.04-2.584.154-5.038-.697l.573-1.317c11.222-4.999 38.184-13.074 50.69-17.086 47.284-15.172 94.529-29.76 143.838-36.574"/><path fill="#FFFFFF" fill-opacity=".11" d="M774.969 394.341c4.993-3.358 7.955-5.108 13.203-7.944-4.843 4.768-6.852 6.696-12.412 10.737z"/></svg>