<?xml version="1.0" encoding="UTF-8" standalone="no"?>
<svg
   viewBox="0 0 16 16"
   version="1.1"
   id="svg1615"
   width="16"
   height="16"
   fill="#CCCCCC"
   xmlns="http://www.w3.org/2000/svg"
   xmlns:svg="http://www.w3.org/2000/svg">
  <defs
     id="defs1619" />
  <!--! Font Awesome Pro 6.3.0 by @fontawesome - https://fontawesome.com License - https://fontawesome.com/license (Commercial License) Copyright 2023 Fonticons, Inc. -->
  <path
     d="M 8,1.5 C 4.409375,1.5 1.5,4.409375 1.5,8 c 0,3.590625 2.909375,6.5 6.5,6.5 0.415625,0 0.75,0.334375 0.75,0.75 C 8.75,15.665625 8.415625,16 8,16 3.58125,16 0,12.41875 0,8 0,3.58125 3.58125,0 8,0 c 4.41875,0 8,3.58125 8,8 v 0.875 c 0,1.5875 -1.2875,2.875 -2.875,2.875 -0.971875,0 -1.834375,-0.484375 -2.353125,-1.225 C 10.084375,11.278125 9.096875,11.75 8,11.75 5.928125,11.75 4.25,10.071875 4.25,8 4.25,5.928125 5.928125,4.25 8,4.25 8.9,4.25 9.725,4.565625 10.36875,5.09375 10.503125,4.8875 10.734375,4.75 11,4.75 c 0.415625,0 0.75,0.334375 0.75,0.75 V 8 8.875 c 0,0.759375 0.615625,1.375 1.375,1.375 0.759375,0 1.375,-0.615625 1.375,-1.375 V 8 C 14.5,4.409375 11.590625,1.5 8,1.5 Z M 10.25,8 a 2.25,2.25 0 1 0 -4.5,0 2.25,2.25 0 1 0 4.5,0 z"
     id="path1613"
     style="stroke-width:0.03125" />
</svg>
