<?xml version="1.0" encoding="UTF-8" standalone="no"?>
<svg
   viewBox="0 0 14 16"
   version="1.1"
   id="svg924"
   width="14"
   height="16"
   fill="#CCCCCC"
   xmlns="http://www.w3.org/2000/svg"
   xmlns:svg="http://www.w3.org/2000/svg">
  <defs
     id="defs928" />
  <!--! Font Awesome Pro 6.2.1 by @fontawesome - https://fontawesome.com License - https://fontawesome.com/license (Commercial License) Copyright 2022 Fonticons, Inc. -->
  <path
     d="m 7,7.25 c 0.415625,0 0.75,0.334375 0.75,0.75 v 1.5 h 1.5 C 9.665625,9.5 10,9.834375 10,10.25 10,10.665625 9.665625,11 9.25,11 h -1.5 v 1.5 c 0,0.415625 -0.334375,0.75 -0.75,0.75 -0.415625,0 -0.75,-0.334375 -0.75,-0.75 V 11 H 4.75 C 4.334375,11 4,10.665625 4,10.25 4,9.834375 4.334375,9.5 4.75,9.5 h 1.5 V 8 C 6.25,7.584375 6.584375,7.25 7,7.25 Z M 4.75,2 h 4.5 V 0.75 C 9.25,0.3359375 9.584375,0 10,0 c 0.415625,0 0.75,0.3359375 0.75,0.75 V 2 H 12 c 1.103125,0 2,0.8953125 2,2 v 10 c 0,1.103125 -0.896875,2 -2,2 H 2 C 0.8953125,16 0,15.103125 0,14 V 4 C 0,2.8953125 0.8953125,2 2,2 H 3.25 V 0.75 C 3.25,0.3359375 3.584375,0 4,0 4.415625,0 4.75,0.3359375 4.75,0.75 Z M 1.5,14 c 0,0.275 0.22375,0.5 0.5,0.5 h 10 c 0.275,0 0.5,-0.225 0.5,-0.5 V 6 h -11 z"
     id="path922"
     style="stroke-width:0.03125" />
</svg>
