<?xml version="1.0" encoding="UTF-8" standalone="no"?>
<svg
   viewBox="0 0 12 16"
   version="1.1"
   id="svg1078"
   width="12"
   height="16"
   fill="#CCCCCC"
   xmlns="http://www.w3.org/2000/svg"
   xmlns:svg="http://www.w3.org/2000/svg">
  <defs
     id="defs1082" />
  <!--! Font Awesome Pro 6.2.1 by @fontawesome - https://fontawesome.com License - https://fontawesome.com/license (Commercial License) Copyright 2022 Fonticons, Inc. -->
  <path
     d="M 11.415625,2.918125 9.0834375,0.585625 C 8.70625,0.2106875 8.196875,0 7.66875,0 H 2 C 0.8953125,0 0,0.8953125 0,2 l 2.03125e-4,12 c 0,1.104375 0.895312495,2 1.999999975,2 H 10 c 1.1,0 2,-0.9 2,-2 V 4.33125 C 12,3.803125 11.790625,3.29375 11.415625,2.918125 Z M 10.5,14 c 0,0.276125 -0.223875,0.5 -0.5,0.5 H 2.000625 c -0.2761875,0 -0.5,-0.223875 -0.5,-0.5 L 1.5,2.0040625 c 0,-0.276125 0.223875,-0.5 0.5,-0.5 H 7 V 4 c 0,0.5521875 0.4478125,1 1,1 h 2.471875 v 9 z M 6.70625,7.75 C 6.603125,7.45 6.31875,7.25 6,7.25 5.68125,7.25 5.3984375,7.4501875 5.293125,7.75 L 4.521875,9.940625 3.7128125,7.51375 C 3.58125,7.11875 3.15625,6.9125 2.7628125,7.0375 c -0.393125,0.13125 -0.605,0.55625 -0.474375,0.95 l 1.5,4.5 C 3.890625,12.790625 4.171875,12.996875 4.49375,13 4.8115625,13 5.1015625,12.799813 5.2071875,12.5 L 6,10.253125 6.79375,12.5 C 6.9,12.8 7.18125,13 7.5,13 7.8209375,12.9971 8.1103125,12.791 8.2115625,12.487187 l 1.5,-4.4999995 C 9.8424375,7.59375 9.6305,7.1696875 9.2375,7.0378125 8.8434375,6.9089062 8.41875,7.118875 8.28875,7.5125 L 7.4796875,9.939375 Z"
     id="path1076"
     style="stroke-width:0.03125" />
</svg>
