<?xml version="1.0" encoding="UTF-8" standalone="no"?>
<svg
   viewBox="0 0 15.998858 16"
   version="1.1"
   id="svg1232"
   width="15.998857"
   height="16"
   fill="#6F7685"
   xmlns="http://www.w3.org/2000/svg"
   xmlns:svg="http://www.w3.org/2000/svg">
  <defs
     id="defs1236" />
  <!--! Font Awesome Pro 6.3.0 by @fontawesome - https://fontawesome.com License - https://fontawesome.com/license (Commercial License) Copyright 2023 Fonticons, Inc. -->
  <path
     d="m 1.1384332,11.272322 -0.71947667,2.443092 -0.38789174,1.320083 c -0.07820398,0.265894 -0.0062563,0.550556 0.18768955,0.744502 0.19394587,0.193946 0.47860836,0.265894 0.74137374,0.190818 L 2.2833394,15.579797 4.7264318,14.86032 c 0.3253285,-0.09384 0.62876,-0.250252 0.8946535,-0.453583 l 0.00938,0.0063 0.015641,-0.02503 c 0.043794,-0.03441 0.08446,-0.06882 0.1251263,-0.103229 0.043794,-0.03754 0.08446,-0.0782 0.1251264,-0.11887 l 9.51586,-9.5127322 C 16.09729,3.96807 16.18175,2.9138803 15.668732,2.1349687 15.596785,2.0254831 15.509196,1.9191257 15.412223,1.8221527 L 14.179729,0.58652989 c -0.78204,-0.78203985 -2.048945,-0.78203985 -2.830984,0 L 1.8328845,10.10239 c -0.078204,0.0782 -0.1532798,0.162664 -0.2220993,0.250253 l -0.025025,0.01564 0.00626,0.0094 c -0.2033303,0.265894 -0.3566101,0.569325 -0.453583,0.894654 z M 11.980633,5.9575792 6.1747695,11.763443 4.6232025,11.375551 4.2353108,9.823984 10.041174,4.0181205 Z m -8.9465354,5.2521798 0.2408683,0.969729 c 0.065691,0.269022 0.2784062,0.478608 0.5474279,0.547428 l 0.9697293,0.240868 -0.2314838,0.350354 c -0.081332,0.04379 -0.1657924,0.08133 -0.2533809,0.106357 l -0.7319892,0.215843 -1.7173594,0.500506 0.5036336,-1.714232 0.215843,-0.731989 c 0.025025,-0.08759 0.062563,-0.175177 0.1063574,-0.253381 z M 9.8628692,6.8240793 c 0.1939458,-0.1939459 0.1939458,-0.5130181 0,-0.706964 -0.1939459,-0.1939458 -0.5130181,-0.1939458 -0.706964,0 L 6.1528724,9.1201482 c -0.1939459,0.1939458 -0.1939459,0.5130178 0,0.7069638 0.1939458,0.193946 0.5130181,0.193946 0.7069639,0 z"
     id="path1230"
     style="stroke-width:0.0312816" />
</svg>
