<?xml version="1.0" encoding="UTF-8" standalone="no"?>
<!-- Created with Inkscape (http://www.inkscape.org/) -->

<svg
   xmlns:dc="http://purl.org/dc/elements/1.1/"
   xmlns:cc="http://creativecommons.org/ns#"
   xmlns:rdf="http://www.w3.org/1999/02/22-rdf-syntax-ns#"
   xmlns:svg="http://www.w3.org/2000/svg"
   xmlns="http://www.w3.org/2000/svg"
   xmlns:sodipodi="http://sodipodi.sourceforge.net/DTD/sodipodi-0.dtd"
   xmlns:inkscape="http://www.inkscape.org/namespaces/inkscape"
   width="210mm"
   height="297mm"
   viewBox="0 0 210 297"
   version="1.1"
   id="svg4526"
   inkscape:version="0.92.1 r15371"
   sodipodi:docname="background.svg">
  <defs
     id="defs4520">
    <marker
       inkscape:stockid="DotL"
       orient="auto"
       refY="0.0"
       refX="0.0"
       id="marker5101"
       style="overflow:visible"
       inkscape:isstock="true">
      <path
         id="path5099"
         d="M -2.5,-1.0 C -2.5,1.7600000 -4.7400000,4.0 -7.5,4.0 C -10.260000,4.0 -12.5,1.7600000 -12.5,-1.0 C -12.5,-3.7600000 -10.260000,-6.0 -7.5,-6.0 C -4.7400000,-6.0 -2.5,-3.7600000 -2.5,-1.0 z "
         style="fill-rule:evenodd;stroke:#006600;stroke-width:1pt;stroke-opacity:1;fill:#006600;fill-opacity:1"
         transform="scale(0.8) translate(7.4, 1)" />
    </marker>
    <marker
       inkscape:stockid="DotL"
       orient="auto"
       refY="0.0"
       refX="0.0"
       id="DotL"
       style="overflow:visible"
       inkscape:isstock="true">
      <path
         id="path4592"
         d="M -2.5,-1.0 C -2.5,1.7600000 -4.7400000,4.0 -7.5,4.0 C -10.260000,4.0 -12.5,1.7600000 -12.5,-1.0 C -12.5,-3.7600000 -10.260000,-6.0 -7.5,-6.0 C -4.7400000,-6.0 -2.5,-3.7600000 -2.5,-1.0 z "
         style="fill-rule:evenodd;stroke:#006600;stroke-width:1pt;stroke-opacity:1;fill:#006600;fill-opacity:1"
         transform="scale(0.8) translate(7.4, 1)" />
    </marker>
  </defs>
  <sodipodi:namedview
     id="base"
     pagecolor="#ffffff"
     bordercolor="#666666"
     borderopacity="1.0"
     inkscape:pageopacity="0.0"
     inkscape:pageshadow="2"
     inkscape:zoom="0.7"
     inkscape:cx="300.16329"
     inkscape:cy="559.52452"
     inkscape:document-units="mm"
     inkscape:current-layer="layer1"
     showgrid="false"
     inkscape:window-width="1920"
     inkscape:window-height="1137"
     inkscape:window-x="-8"
     inkscape:window-y="-8"
     inkscape:window-maximized="1" />
  <metadata
     id="metadata4523">
    <rdf:RDF>
      <cc:Work
         rdf:about="">
        <dc:format>image/svg+xml</dc:format>
        <dc:type
           rdf:resource="http://purl.org/dc/dcmitype/StillImage" />
        <dc:title />
      </cc:Work>
    </rdf:RDF>
  </metadata>
  <g
     inkscape:label="Ebene 1"
     inkscape:groupmode="layer"
     id="layer1">
    <rect
       style="fill:#ffffff;fill-opacity:1;stroke:none;stroke-width:0.20180069"
       id="rect4497"
       width="335.38443"
       height="78.817177"
       x="-564.64038"
       y="-586.94879"
       ry="0"
       transform="matrix(-0.99686283,0.0791486,0.53446234,-0.84519229,0,0)" />
    <path
       style="fill:#ff0000;stroke:none;stroke-width:0.26458332px;stroke-linecap:butt;stroke-linejoin:miter;stroke-opacity:1"
       d="M 38.658296,414.66664 211.91709,171.06847 c 0.38127,0.69972 0.71,1.43072 1.14384,2.09911 0.36875,0.56815 1.66539,1.55184 2.21224,2.06142 0.18439,0.17178 0.30129,0.52422 0.55306,0.51534 0.25184,-0.009 0.26353,-0.54418 0.51536,-0.55305 0.25182,-0.009 0.3687,0.34356 0.55306,0.51536 0.36871,0.34356 0.73741,0.68711 1.10611,1.03069 0.18439,0.1718 -0.38126,-0.69971 -0.55305,-0.51535 -0.17179,0.18438 0.36871,0.34357 0.55305,0.51535 0.18439,0.1718 0.31135,0.44416 0.55308,0.51534 0.71858,0.21168 2.38903,-0.24661 3.20523,-0.11311 0.55607,0.0909 1.06541,0.38669 1.62148,0.47764 0.35168,0.0575 0.71228,-0.0251 1.06842,-0.0377 1.0684,-0.0377 2.1475,0.0423 3.20522,-0.11313 0.55745,-0.082 1.02631,-0.50884 1.58378,-0.59075 1.0577,-0.15551 2.1392,-0.19365 3.20524,-0.11315 0.56186,0.0424 1.06685,0.57695 1.62147,0.47765 0.78431,-0.14082 1.31074,-1.02793 2.09912,-1.14382 0.89888,-0.13208 1.791,0.57204 2.68988,0.43993 2.56677,-0.37723 3.89582,-4.69076 7.40348,-2.40078 1.76559,-0.23977 3.56137,-0.12569 5.34204,-0.18855 2.49299,-0.088 4.98442,-0.27569 7.47892,-0.26396 1.96803,0.009 3.93263,0.47477 5.89511,0.3268 2.51271,-0.18945 4.92291,-1.24348 7.44118,-1.33237 2.51828,-0.0889 5.00568,0.59266 7.51661,0.80445 1.96108,0.16542 3.92735,0.29274 5.89513,0.32679 8.16012,0.14125 1.3163,-1.01218 13.88935,-0.4902 1.46806,0.0609 2.90196,0.5024 4.31136,0.91758 5.07511,1.49499 2.3709,1.08272 6.52361,2.97899 3.14796,1.4375 0.91538,-1.26904 3.75829,0.40221 1.53603,0.90302 2.85764,2.13982 4.38678,3.05441 3.14872,1.88327 6.72621,3.00601 9.80427,5.00264 2.12459,1.37815 4.00422,3.10236 6.04598,4.60047 1.43658,1.05405 2.99997,1.93565 4.38679,3.05439 1.37286,1.10748 2.58094,2.40497 3.87142,3.60747 4.58139,4.269 4.07268,3.67223 9.9928,10.34474 1.18254,1.33283 2.14952,2.84943 3.35607,4.16053 2.50429,2.72121 3.92658,2.92409 5.56833,6.22192 0.40486,0.81335 0.13384,1.89009 0.62847,2.65219 0.68594,1.05684 2.22846,1.43694 2.76531,2.57676 0.68747,1.45969 0.20619,3.2542 0.70389,4.78901 0.32048,0.9883 1.13127,1.74296 1.6969,2.61447 1.00975,3.35188 2.01952,6.70376 3.02927,10.05563 0.36443,1.74414 0.0322,3.56715 0.18853,5.34209 0.14159,1.60725 0.64698,3.17651 0.7039,4.78899 0.14144,4.00709 -0.38831,10.13845 -1.64661,13.96479 -0.40138,1.22056 -1.43973,2.13616 -2.0237,3.28065 -0.25574,0.50208 -0.17606,1.14552 -0.47765,1.62149 -1.90731,3.0102 -4.07252,5.84902 -6.10879,8.77354 -0.68714,0.73742 -1.4743,1.39295 -2.06141,2.21224 -4.00631,5.59054 -7.95928,11.22389 -11.70226,16.99406 -6.35825,9.80187 1.50649,0.17916 -5.55574,9.28891 -0.61752,0.79662 -1.37427,1.47482 -2.06141,2.21224 -2.06141,2.21224 -4.12283,4.42449 -6.18422,6.63674 -1.88963,2.02788 -3.77926,4.05577 -5.66887,6.08366 -0.68714,0.73743 -1.31031,1.54011 -2.06141,2.21224 -1.32773,1.18825 -2.87139,2.12608 -4.16053,3.35607 -1.82313,1.73948 -3.27584,3.85018 -5.15352,5.53061 -2.28431,2.04434 -5.03465,3.53015 -7.29034,5.60604 -2.59585,2.38888 -4.80996,5.1619 -7.21493,7.74284 -3.43567,3.68707 -6.87136,7.37415 -10.30705,11.06121 -2.40496,2.58097 -4.80994,5.16191 -7.21492,7.74287 -2.57677,2.7653 -5.0657,5.61511 -7.73028,8.29591 -2.84776,2.86508 -5.95095,5.46854 -8.79869,8.33363 -2.66459,2.68078 -5.15353,5.5306 -7.73029,8.29591 -5.66886,6.08366 -11.33774,12.16733 -17.0066,18.251 -2.06142,2.21224 -4.12282,4.42449 -6.18423,6.63673 -1.54605,1.65919 -2.97784,3.43273 -4.63817,4.97755 -0.94065,0.87526 -2.15545,1.4124 -3.12981,2.24995 -1.71984,1.47831 -2.94826,3.46516 -4.63818,4.97755 -1.14215,1.02217 -2.49386,1.79117 -3.64517,2.80301 -0.75709,0.66539 -1.37427,1.47484 -2.06141,2.21225 -0.68713,0.7374 -1.37427,1.47483 -2.06141,2.21224 -4.63816,4.97755 -9.27633,9.95509 -13.91451,14.93264 -2.57674,2.76531 -5.03582,5.64514 -7.73027,8.29592 -1.44819,1.42477 -3.20603,2.50672 -4.67588,3.90913 -1.6408,1.56554 -3.00704,3.40192 -4.63817,4.97755 -2.38381,2.30272 -7.65348,6.64291 -10.38246,8.92439 -3.45161,2.88563 -7.74245,6.61975 -11.45086,8.9621 -16.71943,10.56053 4.74153,-3.6126 -11.63942,3.62003 -1.85847,0.82057 -2.93588,2.86051 -4.67587,3.90914 -16.60662,10.00826 -3.29244,0.70514 -14.73153,6.93841 -1.82461,0.99424 -3.48596,2.26252 -5.22894,3.39378 -1.58377,0.59074 -3.24568,1.00389 -4.75129,1.77231 -1.14445,0.58405 -1.9796,1.67734 -3.12983,2.24995 -0.81334,0.40486 -1.77906,0.37722 -2.65217,0.62848 -1.08294,0.31171 -2.0709,0.9219 -3.16753,1.18154 -0.69351,0.16437 -1.44332,-0.0889 -2.13683,0.0754 -0.54826,0.12991 -1.03565,0.46049 -1.58377,0.59075 -0.69353,0.16428 -1.44331,-0.0889 -2.13683,0.0754 -0.54827,0.12991 -1.02066,0.57089 -1.58378,0.59074 -0.56308,0.0199 -1.10278,-0.25752 -1.62146,-0.47764 -2.20057,-0.93388 -4.43163,-1.82213 -6.523612,-2.97898 -0.66155,-0.36581 -1.10612,-1.03071 -1.65918,-1.54605 -0.737411,-0.68714 -1.474823,-1.37427 -2.212236,-2.06141 -1.290483,-1.20249 -2.580959,-2.40498 -3.871431,-3.60746 -0.553057,-0.51536 -1.217933,-0.93226 -1.659182,-1.54607 -0.328893,-0.4575 -0.350695,-1.07402 -0.590767,-1.58376 -0.339533,-0.72089 -0.732526,-1.41663 -1.143837,-2.09912 -0.536272,-0.88984 -1.131262,-1.74298 -1.696882,-2.61446 -0.368715,-0.34358 -0.811963,-0.6215 -1.106128,-1.03071 -1.448499,-2.01495 -1.197035,-2.87096 -2.32537,-5.26665 -0.679064,-1.44177 -1.730682,-2.70504 -2.287664,-4.19822 -0.440324,-1.18047 -0.157303,-2.56804 -0.666187,-3.7206 -2.91146,-6.59407 -0.757204,5.54215 -2.840716,-4.71358 -0.212847,-1.04768 0.182582,-2.17788 -0.113132,-3.20525 -0.139398,-0.4843 -0.86498,-0.58817 -1.106119,-1.03069 -0.170509,-0.31292 0.04447,-0.72166 -0.03771,-1.06843 -0.129924,-0.54827 -0.321166,-1.08899 -0.590764,-1.58375 -0.120572,-0.22127 -0.508647,-0.26732 -0.553055,-0.51535 -0.188477,-1.05235 0.0753,-2.1529 -0.113136,-3.20525 -0.663589,-3.7061 -1.015442,-4.0841 -2.916136,-6.85041 -0.02942,-0.0429 -4.495622,-6.25178 -4.499909,-6.25964 -0.539207,-0.98953 -0.726368,-2.13663 -1.18154,-3.16753 -0.643706,-1.4579 -1.730671,-2.70504 -2.287652,-4.19823 -0.317536,-0.85124 -0.241362,-1.83024 -0.628496,-2.65219 -0.21472,-0.45592 -0.989898,-0.5403 -1.106116,-1.0307 -0.129914,-0.54826 0.607517,-1.07323 0.477647,-1.62147 -0.02136,-0.0905 -1.897441,-1.76807 -2.212242,-2.0614 -0.184364,-0.17179 -0.311341,-0.44415 -0.553065,-0.51536 -0.683667,-0.20139 -1.453145,0.27684 -2.136822,0.0754 -0.48343,-0.1424 -0.647692,-0.82136 -1.106122,-1.0307 -5.250351,-2.39756 1.020535,0.65304 -2.689887,-0.43994 -0.241716,-0.0712 -0.304386,-0.47468 -0.553055,-0.51534 -0.703377,-0.11504 -1.433449,0.19047 -2.136829,0.0754 -0.248682,-0.0407 -0.323853,-0.41068 -0.553061,-0.51535 -4.756687,-2.17213 3.319671,2.88331 -5.41749,-1.94829 -0.661554,-0.36581 -1.038797,-1.11409 -1.659179,-1.54605 -1.434026,-0.99847 -5.775267,-2.60675 -6.045966,-4.60045 -0.349028,-2.57075 1.248578,-5.03621 1.872876,-7.55431 z"
       id="path4533"
       inkscape:connector-curvature="0" />
    <rect
       style="fill:#ffffff;fill-opacity:1;stroke:none;stroke-width:0.29854646"
       id="rect4483"
       width="170.39999"
       height="221.45833"
       x="19.799999"
       y="41.761909" />
    <path
       style="fill:#ffffff;fill-opacity:1;stroke:none;stroke-width:0.59710151"
       d="m -152.47128,469.6604 c 0.72276,-0.94621 19.07472,-25.63293 40.78215,-54.85929 21.707429,-29.22634 39.816008,-53.46862 40.241284,-53.87166 0.538782,-0.51062 47.13038,3.86128 153.665558,14.4192 169.764058,16.82398 154.704088,14.86697 161.736848,21.01742 3.53684,3.09306 26.20749,16.83523 32.45667,19.67402 2.76457,1.2559 4.18801,1.6167 4.73862,1.2012 1.37692,-1.03917 29.28061,8.41366 37.49279,12.70126 1.513,0.78994 6.92585,2.36169 12.02855,3.49273 l 9.27767,2.05639 6.34238,-2.0838 c 3.48825,-1.14606 6.39431,-1.95806 6.45788,-1.80445 0.0635,0.15346 -13.87364,19.10455 -30.97156,42.11323 l -31.08715,41.83401 -2.89429,-0.17494 c -4.25535,-0.25718 -438.92505,-43.42505 -440.3612,-43.73308 -1.21845,-0.26139 -1.21765,-0.26724 0.0938,-1.98223 z"
       id="path4501"
       inkscape:connector-curvature="0" />
    <rect
       style="fill:#ff0000;fill-opacity:1;stroke:none;stroke-width:0.07824698"
       id="rect4503"
       width="393.85117"
       height="4"
       x="-91.470238"
       y="344.40479" />
    <text
       xml:space="preserve"
       style="font-style:normal;font-weight:normal;font-size:10.58333302px;line-height:1.25;font-family:sans-serif;letter-spacing:0px;word-spacing:0px;fill:#000000;fill-opacity:1;stroke:none;stroke-width:0.26458332"
       x="37.419643"
       y="163.95238"
       id="text4507"><tspan
         sodipodi:role="line"
         id="tspan4505"
         x="37.419643"
         y="173.60788"
         style="stroke-width:0.26458332"></tspan></text>
  </g>
</svg>
