<?xml version="1.0" encoding="UTF-8" standalone="no"?>
<svg
   viewBox="0 0 14 16"
   version="1.1"
   id="svg1386"
   width="14"
   height="16"
   fill="#CCCCCC"
   xmlns="http://www.w3.org/2000/svg"
   xmlns:svg="http://www.w3.org/2000/svg">
  <defs
     id="defs1390" />
  <!--! Font Awesome Pro 6.3.0 by @fontawesome - https://fontawesome.com License - https://fontawesome.com/license (Commercial License) Copyright 2023 Fonticons, Inc. -->
  <path
     d="M 2,14.5 H 3 V 16 H 2 C 0.896875,16 0,15.103125 0,14 V 2 C 0,0.896875 0.896875,0 2,0 H 7.171875 C 7.703125,0 8.2125,0.209375 8.5875,0.584375 L 11.415625,3.4125 C 11.790625,3.7875 12,4.296875 12,4.828125 V 9 H 10.5 V 5 H 8 C 7.446875,5 7,4.553125 7,4 V 1.5 H 2 C 1.725,1.5 1.5,1.725 1.5,2 v 12 c 0,0.275 0.225,0.5 0.5,0.5 z M 5,11 h 0.75 c 0.965625,0 1.75,0.784375 1.75,1.75 0,0.965625 -0.784375,1.75 -1.75,1.75 H 5.5 v 1 C 5.5,15.775 5.275,16 5,16 4.725,16 4.5,15.775 4.5,15.5 V 14 11.5 C 4.5,11.225 4.725,11 5,11 Z m 0.75,2.5 C 6.165625,13.5 6.5,13.165625 6.5,12.75 6.5,12.334375 6.165625,12 5.75,12 H 5.5 v 1.5 z M 8,11.5 C 8,11.225 8.225,11 8.5,11 h 0.75 c 0.828125,0 1.5,0.671875 1.5,1.5 v 2 c 0,0.828125 -0.671875,1.5 -1.5,1.5 H 8.5 C 8.225,16 8,15.775 8,15.5 Z M 9,15 h 0.25 c 0.275,0 0.5,-0.225 0.5,-0.5 v -2 C 9.75,12.225 9.525,12 9.25,12 H 9 Z m 3,-4 h 1.5 c 0.275,0 0.5,0.225 0.5,0.5 0,0.275 -0.225,0.5 -0.5,0.5 h -1 v 1 h 1 c 0.275,0 0.5,0.225 0.5,0.5 0,0.275 -0.225,0.5 -0.5,0.5 h -1 v 1.5 c 0,0.275 -0.225,0.5 -0.5,0.5 -0.275,0 -0.5,-0.225 -0.5,-0.5 v -2 -2 C 11.5,11.225 11.725,11 12,11 Z"
     id="path1384"
     style="stroke-width:0.03125" />
</svg>
