<?xml version="1.0" encoding="UTF-8" standalone="no"?>
<svg
   viewBox="0 0 15.996439 16"
   version="1.1"
   id="svg1089"
   width="15.996439"
   height="16"
   xmlns="http://www.w3.org/2000/svg"
   xmlns:svg="http://www.w3.org/2000/svg">
  <defs
     id="defs1093" />
  <!--! Font Awesome Pro 6.4.2 by @fontawesome - https://fontawesome.com License - https://fontawesome.com/license (Commercial License) Copyright 2023 Fonticons, Inc. -->
  <path
     d="m 15.562725,0.17508319 c 0.315559,0.21870467 0.48115,0.5967513 0.421787,0.97479791 L 13.984927,14.147186 c -0.04687,0.303063 -0.231202,0.568633 -0.499896,0.718601 -0.268695,0.149969 -0.590503,0.168715 -0.874819,0.04999 L 8.873486,13.362974 6.7333047,15.678119 C 6.4552373,15.981181 6.017828,16.081161 5.6335326,15.931192 5.2492373,15.781223 4.9992891,15.409425 4.9992891,14.99701 v -2.611958 c 0,-0.124974 0.046865,-0.2437 0.1312228,-0.334306 L 10.366927,6.336306 C 10.548139,6.1394718 10.541891,5.8364096 10.35443,5.6489484 10.166968,5.4614873 9.8639057,5.4489899 9.6670715,5.627078 L 3.3121389,11.272782 0.55333579,9.8918189 C 0.22215444,9.7262282 0.00969848,9.3950469 3.2541787e-4,9.0263733 -0.00904763,8.6576998 0.18466221,8.314021 0.50334615,8.1296842 L 14.500445,0.13134226 c 0.334306,-0.19058549 0.74672,-0.17183938 1.06228,0.0437409 z"
     id="path1087"
     style="fill:#cccccc;stroke-width:0.0312435" />
</svg>
