<?xml version="1.0" encoding="UTF-8" standalone="no"?>
<svg
   viewBox="0 0 16 11.2"
   version="1.1"
   id="svg4"
   width="16"
   height="11.2"
   fill="#CCCCCC"
   xmlns="http://www.w3.org/2000/svg"
   xmlns:svg="http://www.w3.org/2000/svg">
  <defs
     id="defs8" />
  <!--!Font Awesome Free 6.5.1 by @fontawesome - https://fontawesome.com License - https://fontawesome.com/license/free Copyright 2024 Fonticons, Inc.-->
  <path
     d="m 1.8,1.4 a 1.4,1.4 0 1 1 2.8,0 1.4,1.4 0 1 1 -2.8,0 z M 1.6,5.3425001 c -0.25,0.28 -0.4,0.6525001 -0.4,1.0574998 0,0.4050004 0.15,0.7774998 0.4,1.0574998 z M 5.2099999,4.1100003 C 4.4675,4.7674998 4,5.7299998 4,6.8000002 c 0,0.8575 0.2999999,1.645 0.8,2.2625001 V 9.6000002 C 4.8,10.0425 4.4425,10.4 4,10.4 H 2.4 C 1.9575,10.4 1.6,10.0425 1.6,9.6000002 V 8.9300001 C 0.655,8.4800002 0,7.5175002 0,6.3999999 0,4.8525001 1.2525,3.6 2.8,3.6 h 0.7999999 c 0.6000001,0 1.155,0.1874999 1.61,0.5074999 z M 11.2,9.6000002 V 9.0625003 C 11.7,8.4450002 12,7.6575002 12,6.8000002 12,5.7299998 11.5325,4.7674998 10.79,4.1074999 11.245,3.7874999 11.8,3.6 12.4,3.6 h 0.8 c 1.5475,0 2.8,1.2525001 2.8,2.8 0,1.1175002 -0.655,2.0800002 -1.6,2.5300001 V 9.6000002 C 14.4,10.0425 14.0425,10.4 13.6,10.4 H 12 c -0.4425,0 -0.8,-0.3575 -0.8,-0.7999998 z M 11.4,1.4 a 1.4,1.4 0 1 1 2.8,0 1.4,1.4 0 1 1 -2.8,0 z m 3,3.9425001 v 2.1175 C 14.65,7.1774997 14.8,6.8075 14.8,6.4025003 14.8,5.9974999 14.65,5.6249998 14.4,5.3449998 Z M 7.9999997,5e-8 a 1.6000002,1.6000002 0 1 1 0,3.20000025 1.6000002,1.6000002 0 1 1 0,-3.20000025 z M 6,6.8000002 C 6,7.2049999 6.15,7.5750003 6.3999999,7.8575 V 5.7424997 C 6.15,6.0250001 6,6.3949998 6,6.8000002 Z M 9.6000001,5.7424997 v 2.1175 C 9.8500002,7.5775 9.9999997,7.2075003 9.9999997,6.8024999 c 0,-0.4049997 -0.1499995,-0.7774998 -0.3999996,-1.0574998 z M 11.2,6.8000002 c 0,1.1174996 -0.655,2.0799996 -1.5999999,2.5299995 V 10.4 c 0,0.4425 -0.3575005,0.8 -0.7999999,0.8 H 7.1999998 C 6.7574999,11.2 6.3999999,10.8425 6.3999999,10.4 V 9.3299997 C 5.4549999,8.8799998 4.8,7.9174998 4.8,6.8000002 c 0,-1.5475005 1.2525,-2.8 2.8000001,-2.8 h 0.7999998 c 1.5474998,0 2.8000001,1.2524995 2.8000001,2.8 z"
     id="path2"
     style="stroke-width:0.025" />
</svg>
