<?xml version="1.0" encoding="UTF-8" standalone="no"?>
<svg
   viewBox="0 0 15.751629 14.000001"
   version="1.1"
   id="svg4"
   width="15.751629"
   height="14.000001"
   xmlns="http://www.w3.org/2000/svg"
   xmlns:svg="http://www.w3.org/2000/svg">
  <defs
     id="defs8" />
  <!--! Font Awesome Pro 6.4.2 by @fontawesome - https://fontawesome.com License - https://fontawesome.com/license (Commercial License) Copyright 2023 Fonticons, Inc. -->
  <path
     style="fill:#cccccc;fill-opacity:1;stroke:#cccccc;stroke-width:0.0160703;stroke-opacity:1"
     d="m 10.020025,13.988067 c -0.3304537,-0.0221 -0.3291417,-0.02111 -1.3047243,-0.991283 -0.4568574,-0.454327 -0.8382431,-0.82349 -0.8475233,-0.820362 -0.00928,0.0031 -0.3514201,0.338764 -0.7603102,0.745859 -0.4088905,0.407095 -0.7925439,0.784974 -0.8525633,0.839733 -0.1895805,0.172962 -0.3632004,0.235689 -0.6220732,0.224747 -0.138919,-0.0059 -0.1654362,-0.01248 -0.2944498,-0.07342 -0.3108741,-0.14683 -0.5135194,-0.456369 -0.5122757,-0.782497 5.179e-4,-0.135508 0.058055,-0.326017 0.136079,-0.450557 0.028475,-0.04545 0.4817138,-0.513496 1.0434814,-1.077569 L 6.9988071,10.605502 V 10.112198 9.6188928 L 5.829692,9.6183318 C 4.4362345,9.6176598 2.7025086,9.6056128 2.4669797,9.5949648 1.7998298,9.5648018 1.18184,9.0678529 0.95601945,8.3799433 0.92873285,8.2968209 0.90227435,8.217964 0.89722285,8.2047059 0.89217135,8.1914482 0.88761705,6.8969846 0.88710215,5.3281206 0.88658725,3.7592567 0.88362495,2.3077842 0.88051925,2.1026265 l -0.00565,-0.3730141 -0.05969,-0.00911 C 0.78235245,1.7154876 0.71892675,1.7041558 0.67423625,1.6953179 0.40551156,1.642175 0.12588749,1.382777 0.04097489,1.107862 0.00570041,0.99365647 -0.00269036,0.77884897 0.02390297,0.67081317 0.07375915,0.46827177 0.24120327,0.243859 0.43127765,0.12483962 c 0.151063,-0.0945916 0.1407838,-0.0923819 0.5009875,-0.10769746 0.36103355,-0.0153509 13.97321185,-0.009839 14.09530285,0.005707 0.13634,0.0173609 0.232811,0.0576869 0.366891,0.15336389 0.219876,0.1569006 0.349134,0.41026732 0.349134,0.68436112 0,0.41576233 -0.295701,0.76282393 -0.721391,0.84668953 l -0.131866,0.025979 -0.0049,0.4274448 c -0.0027,0.2350948 -0.0065,1.5917389 -0.0084,3.0147651 -0.0019,1.4230257 -0.0075,2.6759624 -0.01233,2.784303 -0.0183,0.4073061 -0.150833,0.7309553 -0.430646,1.051674 -0.201422,0.2308675 -0.465719,0.4114992 -0.738707,0.5048622 -0.172036,0.05884 -0.239448,0.07104 -0.435674,0.07883 -0.177051,0.007 -2.811844,0.02275 -3.9266164,0.02342 l -0.5825487,3.5e-4 4.604e-4,0.4941632 4.603e-4,0.494162 0.9921867,0.996359 c 0.5457027,0.547997 1.0154237,1.031756 1.0438247,1.075019 0.08449,0.128703 0.119592,0.241619 0.128582,0.413608 0.0097,0.18622 -0.01064,0.285987 -0.08943,0.437814 -0.109037,0.210133 -0.309033,0.369723 -0.54941,0.438412 -0.0842,0.02406 -0.134063,0.02787 -0.257125,0.01964 z m 3.11764,-9.1822314 V 1.7283712 H 7.8746389 2.6116125 v 3.0774644 3.0774643 h 5.2630264 5.2630261 z"
     id="path1049" />
</svg>
