<?xml version="1.0" encoding="UTF-8" standalone="no"?>
<svg
   viewBox="0 0 16 16"
   version="1.1"
   id="svg1309"
   width="16"
   height="16"
   fill="#CCCCCC"
   xmlns="http://www.w3.org/2000/svg"
   xmlns:svg="http://www.w3.org/2000/svg">
  <defs
     id="defs1313" />
  <!--! Font Awesome Pro 6.3.0 by @fontawesome - https://fontawesome.com License - https://fontawesome.com/license (Commercial License) Copyright 2023 Fonticons, Inc. -->
  <path
     d="M 3.5,5 V 2 C 3.5,1.725 3.725,1.5 4,1.5 h 7.171875 c 0.13125,0 0.259375,0.053125 0.353125,0.146875 L 12.353125,2.475 C 12.446875,2.56875 12.5,2.696875 12.5,2.828125 V 5 H 14 V 2.828125 C 14,2.296875 13.790625,1.7875 13.415625,1.4125 L 12.584375,0.584375 C 12.209375,0.209375 11.703125,0 11.171875,0 H 4 C 2.896875,0 2,0.896875 2,2 V 5 Z M 4,11.5 h 8 v 3 H 4 Z M 3.5,10 c -0.553125,0 -1,0.446875 -1,1 h -1 V 8 C 1.5,7.725 1.725,7.5 2,7.5 h 12 c 0.275,0 0.5,0.225 0.5,0.5 v 3 h -1 c 0,-0.553125 -0.446875,-1 -1,-1 z m 10,2.5 H 15 c 0.553125,0 1,-0.446875 1,-1 V 8 C 16,6.896875 15.103125,6 14,6 H 2 C 0.896875,6 0,6.896875 0,8 v 3.5 c 0,0.553125 0.446875,1 1,1 H 2.5 V 15 c 0,0.553125 0.446875,1 1,1 h 9 c 0.553125,0 1,-0.446875 1,-1 z"
     id="path1307"
     style="stroke-width:0.03125" />
</svg>
